<svg xmlns="http://www.w3.org/2000/svg" viewBox="0 0 64 64">
  <!-- Red stripe - sweeps from upper-left to upper-right -->
  <path d="M24 2 Q40 2, 56 8 L52 14 Q38 9, 22 10Z" fill="#CE0E2D"/>
  <!-- Green stripe - sweeps from left to right, below red -->
  <path d="M14 14 Q34 10, 56 18 L50 24 Q34 18, 16 22Z" fill="#4B9B2F"/>
  <!-- Yellow swoosh - big C-curve from right, down, around left, back right -->
  <path d="M18 30 Q36 26, 52 34 Q62 42, 46 54 Q34 62, 16 58 Q4 54, 4 42 Q4 34, 12 34 L14 40 Q8 42, 10 48 Q14 54, 28 56 Q40 56, 46 48 Q50 42, 42 36 Q34 30, 18 34Z" fill="#F5A623"/>
</svg>
